<mxfile host="app.diagrams.net" agent="Mozilla/5.0 (Windows NT 10.0; Win64; x64) AppleWebKit/537.36 (KHTML, like Gecko) Chrome/137.0.0.0 Safari/537.36" version="27.1.6" pages="2">
  <diagram id="C5RBs43oDa-KdzZeNtuy" name="diagrama State">
    <mxGraphModel grid="0" page="1" gridSize="10" guides="1" tooltips="1" connect="1" arrows="1" fold="1" pageScale="1" pageWidth="827" pageHeight="1169" background="#ffffff" math="0" shadow="0">
      <root>
        <mxCell id="WIyWlLk6GJQsqaUBKTNV-0" />
        <mxCell id="WIyWlLk6GJQsqaUBKTNV-1" parent="WIyWlLk6GJQsqaUBKTNV-0" />
        <mxCell id="I7FKSmL-k6VcSlRDoAMc-0" value="Game" style="swimlane;fontStyle=2;align=center;verticalAlign=top;childLayout=stackLayout;horizontal=1;startSize=26;horizontalStack=0;resizeParent=1;resizeLast=0;collapsible=1;marginBottom=0;rounded=0;shadow=0;strokeWidth=1;labelBackgroundColor=none;fontSize=14;" vertex="1" parent="WIyWlLk6GJQsqaUBKTNV-1">
          <mxGeometry x="36" y="180" width="219" height="249" as="geometry">
            <mxRectangle x="205" y="120" width="160" height="26" as="alternateBounds" />
          </mxGeometry>
        </mxCell>
        <mxCell id="I7FKSmL-k6VcSlRDoAMc-1" value="+ current_state : PlayingState()" style="text;align=left;verticalAlign=top;spacingLeft=4;spacingRight=4;overflow=hidden;rotatable=0;points=[[0,0.5],[1,0.5]];portConstraint=eastwest;labelBackgroundColor=none;fontSize=14;" vertex="1" parent="I7FKSmL-k6VcSlRDoAMc-0">
          <mxGeometry y="26" width="219" height="26" as="geometry" />
        </mxCell>
        <mxCell id="I7FKSmL-k6VcSlRDoAMc-2" value="+ screen, drawer, board, winner,&#xa; check_color" style="text;align=left;verticalAlign=top;spacingLeft=4;spacingRight=4;overflow=hidden;rotatable=0;points=[[0,0.5],[1,0.5]];portConstraint=eastwest;rounded=0;shadow=0;html=0;labelBackgroundColor=none;fontSize=14;" vertex="1" parent="I7FKSmL-k6VcSlRDoAMc-0">
          <mxGeometry y="52" width="219" height="42" as="geometry" />
        </mxCell>
        <mxCell id="I7FKSmL-k6VcSlRDoAMc-3" value="" style="line;html=1;strokeWidth=1;align=left;verticalAlign=middle;spacingTop=-1;spacingLeft=3;spacingRight=3;rotatable=0;labelPosition=right;points=[];portConstraint=eastwest;labelBackgroundColor=none;fontSize=14;" vertex="1" parent="I7FKSmL-k6VcSlRDoAMc-0">
          <mxGeometry y="94" width="219" height="8" as="geometry" />
        </mxCell>
        <mxCell id="I7FKSmL-k6VcSlRDoAMc-4" value="+ change_state(new_state) : void&#xa;+ handle_events() : bool&#xa;+ update() : void&#xa;+ render() : void&#xa;+ reset() : void &#xa;+ check_for_check&#xa;+ current_name_state() : string" style="text;align=left;verticalAlign=top;spacingLeft=4;spacingRight=4;overflow=hidden;rotatable=0;points=[[0,0.5],[1,0.5]];portConstraint=eastwest;labelBackgroundColor=none;fontSize=14;" vertex="1" parent="I7FKSmL-k6VcSlRDoAMc-0">
          <mxGeometry y="102" width="219" height="147" as="geometry" />
        </mxCell>
        <mxCell id="I7FKSmL-k6VcSlRDoAMc-5" value="1" style="endArrow=open;html=1;endSize=12;startArrow=diamondThin;startSize=14;startFill=0;edgeStyle=orthogonalEdgeStyle;align=left;verticalAlign=bottom;rounded=0;labelBackgroundColor=none;fontColor=default;fontSize=14;" edge="1" parent="WIyWlLk6GJQsqaUBKTNV-1" source="I7FKSmL-k6VcSlRDoAMc-0" target="I7FKSmL-k6VcSlRDoAMc-29">
          <mxGeometry x="-1" y="3" relative="1" as="geometry">
            <mxPoint x="179" y="387.5" as="sourcePoint" />
            <mxPoint x="378" y="304.5" as="targetPoint" />
          </mxGeometry>
        </mxCell>
        <mxCell id="I7FKSmL-k6VcSlRDoAMc-6" value="PlayingState&#xa;" style="swimlane;fontStyle=0;align=center;verticalAlign=top;childLayout=stackLayout;horizontal=1;startSize=26;horizontalStack=0;resizeParent=1;resizeLast=0;collapsible=1;marginBottom=0;rounded=0;shadow=0;strokeWidth=1;labelBackgroundColor=none;fontSize=14;" vertex="1" parent="WIyWlLk6GJQsqaUBKTNV-1">
          <mxGeometry x="278" y="427" width="289" height="216" as="geometry">
            <mxRectangle x="550" y="140" width="160" height="26" as="alternateBounds" />
          </mxGeometry>
        </mxCell>
        <mxCell id="I7FKSmL-k6VcSlRDoAMc-7" value="+ selected_piece&#xa;+ valid_moves&#xa;+ current_turn" style="text;align=left;verticalAlign=top;spacingLeft=4;spacingRight=4;overflow=hidden;rotatable=0;points=[[0,0.5],[1,0.5]];portConstraint=eastwest;labelBackgroundColor=none;fontSize=14;" vertex="1" parent="I7FKSmL-k6VcSlRDoAMc-6">
          <mxGeometry y="26" width="289" height="61" as="geometry" />
        </mxCell>
        <mxCell id="I7FKSmL-k6VcSlRDoAMc-8" value="" style="line;html=1;strokeWidth=1;align=left;verticalAlign=middle;spacingTop=-1;spacingLeft=3;spacingRight=3;rotatable=0;labelPosition=right;points=[];portConstraint=eastwest;labelBackgroundColor=none;fontSize=14;" vertex="1" parent="I7FKSmL-k6VcSlRDoAMc-6">
          <mxGeometry y="87" width="289" height="10" as="geometry" />
        </mxCell>
        <mxCell id="I7FKSmL-k6VcSlRDoAMc-9" value="+ handle_click(game, click_location)&#xa;# _handle_move(self, game, target_location)&#xa;+ handle_key(game, key)&#xa;+ update(game)&#xa;+ render(game)&#xa;+ name() : &quot;PLAYING&quot;" style="text;align=left;verticalAlign=top;spacingLeft=4;spacingRight=4;overflow=hidden;rotatable=0;points=[[0,0.5],[1,0.5]];portConstraint=eastwest;labelBackgroundColor=none;fontSize=14;" vertex="1" parent="I7FKSmL-k6VcSlRDoAMc-6">
          <mxGeometry y="97" width="289" height="119" as="geometry" />
        </mxCell>
        <mxCell id="I7FKSmL-k6VcSlRDoAMc-10" value="GameOver" style="swimlane;fontStyle=0;align=center;verticalAlign=top;childLayout=stackLayout;horizontal=1;startSize=26;horizontalStack=0;resizeParent=1;resizeLast=0;collapsible=1;marginBottom=0;rounded=0;shadow=0;strokeWidth=1;labelBackgroundColor=none;fontSize=14;" vertex="1" parent="WIyWlLk6GJQsqaUBKTNV-1">
          <mxGeometry x="567" y="427" width="188" height="156" as="geometry">
            <mxRectangle x="550" y="140" width="160" height="26" as="alternateBounds" />
          </mxGeometry>
        </mxCell>
        <mxCell id="I7FKSmL-k6VcSlRDoAMc-11" value="" style="line;html=1;strokeWidth=1;align=left;verticalAlign=middle;spacingTop=-1;spacingLeft=3;spacingRight=3;rotatable=0;labelPosition=right;points=[];portConstraint=eastwest;labelBackgroundColor=none;fontSize=14;" vertex="1" parent="I7FKSmL-k6VcSlRDoAMc-10">
          <mxGeometry y="26" width="188" height="1" as="geometry" />
        </mxCell>
        <mxCell id="I7FKSmL-k6VcSlRDoAMc-12" value="+ handle_click()&#xa;+ handle_key(game, key)&#xa;+ update(game)&#xa;+ render(game)&#xa;+ name() : &quot;GAME_OVER&quot;" style="text;align=left;verticalAlign=top;spacingLeft=4;spacingRight=4;overflow=hidden;rotatable=0;points=[[0,0.5],[1,0.5]];portConstraint=eastwest;labelBackgroundColor=none;fontSize=14;" vertex="1" parent="I7FKSmL-k6VcSlRDoAMc-10">
          <mxGeometry y="27" width="188" height="103" as="geometry" />
        </mxCell>
        <mxCell id="I7FKSmL-k6VcSlRDoAMc-13" value="" style="endArrow=block;dashed=1;endFill=0;endSize=12;html=1;rounded=0;labelBackgroundColor=none;fontColor=default;fontSize=14;" edge="1" parent="WIyWlLk6GJQsqaUBKTNV-1" source="I7FKSmL-k6VcSlRDoAMc-6" target="I7FKSmL-k6VcSlRDoAMc-29">
          <mxGeometry width="160" relative="1" as="geometry">
            <mxPoint x="319" y="427.5" as="sourcePoint" />
            <mxPoint x="456.17857142857133" y="383" as="targetPoint" />
          </mxGeometry>
        </mxCell>
        <mxCell id="I7FKSmL-k6VcSlRDoAMc-14" value="" style="endArrow=block;dashed=1;endFill=0;endSize=12;html=1;rounded=0;labelBackgroundColor=none;fontColor=default;fontSize=14;" edge="1" parent="WIyWlLk6GJQsqaUBKTNV-1" source="I7FKSmL-k6VcSlRDoAMc-10" target="I7FKSmL-k6VcSlRDoAMc-29">
          <mxGeometry width="160" relative="1" as="geometry">
            <mxPoint x="529" y="490.5" as="sourcePoint" />
            <mxPoint x="547.3476070528966" y="383" as="targetPoint" />
          </mxGeometry>
        </mxCell>
        <mxCell id="I7FKSmL-k6VcSlRDoAMc-29" value="&lt;&lt;Interface&gt;&gt;&#xa;AbstractGameState&#xa;&#xa;" style="swimlane;fontStyle=0;align=center;verticalAlign=top;childLayout=stackLayout;horizontal=1;startSize=42;horizontalStack=0;resizeParent=1;resizeLast=0;collapsible=1;marginBottom=0;rounded=0;shadow=0;strokeWidth=1;labelBackgroundColor=none;fontSize=14;" vertex="1" parent="WIyWlLk6GJQsqaUBKTNV-1">
          <mxGeometry x="399" y="228" width="198" height="153" as="geometry">
            <mxRectangle x="719" y="107" width="160" height="26" as="alternateBounds" />
          </mxGeometry>
        </mxCell>
        <mxCell id="I7FKSmL-k6VcSlRDoAMc-30" value="" style="line;html=1;strokeWidth=1;align=left;verticalAlign=middle;spacingTop=-1;spacingLeft=3;spacingRight=3;rotatable=0;labelPosition=right;points=[];portConstraint=eastwest;labelBackgroundColor=none;fontSize=14;" vertex="1" parent="I7FKSmL-k6VcSlRDoAMc-29">
          <mxGeometry y="42" width="198" height="3" as="geometry" />
        </mxCell>
        <mxCell id="I7FKSmL-k6VcSlRDoAMc-31" value="+ handle_click()&#xa;+ handle_key&#xa;+ update()&#xa;+ render()&#xa;+ name()" style="text;align=left;verticalAlign=top;spacingLeft=4;spacingRight=4;overflow=hidden;rotatable=0;points=[[0,0.5],[1,0.5]];portConstraint=eastwest;labelBackgroundColor=none;fontSize=14;" vertex="1" parent="I7FKSmL-k6VcSlRDoAMc-29">
          <mxGeometry y="45" width="198" height="103" as="geometry" />
        </mxCell>
        <mxCell id="GHkLk0nYMzKc6Cr4tSS4-0" value="Design Pattern&lt;div&gt;&lt;br&gt;&lt;div&gt;&lt;font style=&quot;font-size: 18px;&quot;&gt;STATE&lt;/font&gt;&lt;/div&gt;&lt;/div&gt;" style="rounded=1;whiteSpace=wrap;html=1;" vertex="1" parent="WIyWlLk6GJQsqaUBKTNV-1">
          <mxGeometry x="309" y="51" width="191" height="82" as="geometry" />
        </mxCell>
      </root>
    </mxGraphModel>
  </diagram>
  <diagram name="diagrama Facade" id="x1mONK9TEt_-6iH_3dYf">
    <mxGraphModel grid="0" page="1" gridSize="10" guides="1" tooltips="1" connect="1" arrows="1" fold="1" pageScale="1" pageWidth="827" pageHeight="1169" background="#ffffff" math="0" shadow="0">
      <root>
        <mxCell id="MZBfvDzPDUjcSjVEDZ4E-0" />
        <mxCell id="MZBfvDzPDUjcSjVEDZ4E-1" parent="MZBfvDzPDUjcSjVEDZ4E-0" />
        <mxCell id="MZBfvDzPDUjcSjVEDZ4E-17" value="Game" style="swimlane;fontStyle=2;align=center;verticalAlign=top;childLayout=stackLayout;horizontal=1;startSize=26;horizontalStack=0;resizeParent=1;resizeLast=0;collapsible=1;marginBottom=0;rounded=0;shadow=0;strokeWidth=1;labelBackgroundColor=none;fontSize=14;" vertex="1" parent="MZBfvDzPDUjcSjVEDZ4E-1">
          <mxGeometry x="143" y="203" width="205" height="188" as="geometry">
            <mxRectangle x="205" y="120" width="160" height="26" as="alternateBounds" />
          </mxGeometry>
        </mxCell>
        <mxCell id="MZBfvDzPDUjcSjVEDZ4E-18" value="+ drawer : Drawer(screen)" style="text;align=left;verticalAlign=top;spacingLeft=4;spacingRight=4;overflow=hidden;rotatable=0;points=[[0,0.5],[1,0.5]];portConstraint=eastwest;rounded=0;shadow=0;html=0;labelBackgroundColor=none;fontSize=14;" vertex="1" parent="MZBfvDzPDUjcSjVEDZ4E-17">
          <mxGeometry y="26" width="205" height="38" as="geometry" />
        </mxCell>
        <mxCell id="MZBfvDzPDUjcSjVEDZ4E-19" value="+ current_state, screen, board,&#xa;winner, check_color" style="text;align=left;verticalAlign=top;spacingLeft=4;spacingRight=4;overflow=hidden;rotatable=0;points=[[0,0.5],[1,0.5]];portConstraint=eastwest;labelBackgroundColor=none;fontSize=14;" vertex="1" parent="MZBfvDzPDUjcSjVEDZ4E-17">
          <mxGeometry y="64" width="205" height="46" as="geometry" />
        </mxCell>
        <mxCell id="MZBfvDzPDUjcSjVEDZ4E-20" value="" style="line;html=1;strokeWidth=1;align=left;verticalAlign=middle;spacingTop=-1;spacingLeft=3;spacingRight=3;rotatable=0;labelPosition=right;points=[];portConstraint=eastwest;labelBackgroundColor=none;fontSize=14;" vertex="1" parent="MZBfvDzPDUjcSjVEDZ4E-17">
          <mxGeometry y="110" width="205" height="8" as="geometry" />
        </mxCell>
        <mxCell id="MZBfvDzPDUjcSjVEDZ4E-21" value="+ handle_events() : bool&#xa;+ update() : void&#xa;+ render() : void" style="text;align=left;verticalAlign=top;spacingLeft=4;spacingRight=4;overflow=hidden;rotatable=0;points=[[0,0.5],[1,0.5]];portConstraint=eastwest;labelBackgroundColor=none;fontSize=14;" vertex="1" parent="MZBfvDzPDUjcSjVEDZ4E-17">
          <mxGeometry y="118" width="205" height="69" as="geometry" />
        </mxCell>
        <mxCell id="MZBfvDzPDUjcSjVEDZ4E-22" value="Drawer" style="swimlane;fontStyle=0;align=center;verticalAlign=top;childLayout=stackLayout;horizontal=1;startSize=26;horizontalStack=0;resizeParent=1;resizeLast=0;collapsible=1;marginBottom=0;rounded=0;shadow=0;strokeWidth=1;labelBackgroundColor=none;fontSize=14;" vertex="1" parent="MZBfvDzPDUjcSjVEDZ4E-1">
          <mxGeometry x="395" y="172" width="345" height="250" as="geometry">
            <mxRectangle x="550" y="140" width="160" height="26" as="alternateBounds" />
          </mxGeometry>
        </mxCell>
        <mxCell id="MZBfvDzPDUjcSjVEDZ4E-23" value="+ white_images : list[]&#xa;+ black_images : list[]&#xa;+ screen&#xa;+piece_list : list[]&#xa;+ flash_counter: int" style="text;align=left;verticalAlign=top;spacingLeft=4;spacingRight=4;overflow=hidden;rotatable=0;points=[[0,0.5],[1,0.5]];portConstraint=eastwest;labelBackgroundColor=none;fontSize=14;" vertex="1" parent="MZBfvDzPDUjcSjVEDZ4E-22">
          <mxGeometry y="26" width="345" height="97" as="geometry" />
        </mxCell>
        <mxCell id="MZBfvDzPDUjcSjVEDZ4E-24" value="" style="line;html=1;strokeWidth=1;align=left;verticalAlign=middle;spacingTop=-1;spacingLeft=3;spacingRight=3;rotatable=0;labelPosition=right;points=[];portConstraint=eastwest;labelBackgroundColor=none;fontSize=14;" vertex="1" parent="MZBfvDzPDUjcSjVEDZ4E-22">
          <mxGeometry y="123" width="345" height="10" as="geometry" />
        </mxCell>
        <mxCell id="MZBfvDzPDUjcSjVEDZ4E-25" value="+ draw_board(self, turn_step)&#xa;+ draw_pieces(self, board, turn_step, selected_piece)&#xa;+ draw_valid(self, moves, turn_step)&#xa;+ draw_captured(self, board)&#xa;+ draw_check(self, location, color)&#xa;+ draw_game_over(self, winner)" style="text;align=left;verticalAlign=top;spacingLeft=4;spacingRight=4;overflow=hidden;rotatable=0;points=[[0,0.5],[1,0.5]];portConstraint=eastwest;labelBackgroundColor=none;fontSize=14;" vertex="1" parent="MZBfvDzPDUjcSjVEDZ4E-22">
          <mxGeometry y="133" width="345" height="117" as="geometry" />
        </mxCell>
        <mxCell id="MZBfvDzPDUjcSjVEDZ4E-26" value="" style="endArrow=open;endFill=1;endSize=12;html=1;rounded=0;labelBackgroundColor=none;fontColor=default;fontSize=14;" edge="1" parent="MZBfvDzPDUjcSjVEDZ4E-1" source="MZBfvDzPDUjcSjVEDZ4E-17" target="MZBfvDzPDUjcSjVEDZ4E-22">
          <mxGeometry width="160" relative="1" as="geometry">
            <mxPoint x="360" y="275" as="sourcePoint" />
            <mxPoint x="520" y="275" as="targetPoint" />
          </mxGeometry>
        </mxCell>
        <mxCell id="MZBfvDzPDUjcSjVEDZ4E-27" value="Main" style="html=1;whiteSpace=wrap;labelBackgroundColor=none;fontSize=14;" vertex="1" parent="MZBfvDzPDUjcSjVEDZ4E-1">
          <mxGeometry x="4" y="275" width="110" height="50" as="geometry" />
        </mxCell>
        <mxCell id="MZBfvDzPDUjcSjVEDZ4E-28" value="" style="endArrow=open;endFill=1;endSize=12;html=1;rounded=0;labelBackgroundColor=none;fontColor=default;fontSize=14;" edge="1" parent="MZBfvDzPDUjcSjVEDZ4E-1" source="MZBfvDzPDUjcSjVEDZ4E-27" target="MZBfvDzPDUjcSjVEDZ4E-17">
          <mxGeometry width="160" relative="1" as="geometry">
            <mxPoint x="70" y="385" as="sourcePoint" />
            <mxPoint x="210" y="385" as="targetPoint" />
          </mxGeometry>
        </mxCell>
        <mxCell id="MZBfvDzPDUjcSjVEDZ4E-29" value="Use" style="endArrow=open;endSize=12;dashed=1;html=1;rounded=0;fontSize=14;entryX=0.25;entryY=0;entryDx=0;entryDy=0;" edge="1" parent="MZBfvDzPDUjcSjVEDZ4E-1" source="MZBfvDzPDUjcSjVEDZ4E-17" target="MZBfvDzPDUjcSjVEDZ4E-36">
          <mxGeometry width="160" relative="1" as="geometry">
            <mxPoint x="485" y="486" as="sourcePoint" />
            <mxPoint x="518" y="634" as="targetPoint" />
          </mxGeometry>
        </mxCell>
        <mxCell id="MZBfvDzPDUjcSjVEDZ4E-30" value="Use" style="endArrow=open;endSize=12;dashed=1;html=1;rounded=0;fontSize=14;exitX=0.072;exitY=1.003;exitDx=0;exitDy=0;exitPerimeter=0;entryX=0.481;entryY=0.002;entryDx=0;entryDy=0;entryPerimeter=0;" edge="1" parent="MZBfvDzPDUjcSjVEDZ4E-1" source="MZBfvDzPDUjcSjVEDZ4E-25" target="MZBfvDzPDUjcSjVEDZ4E-36">
          <mxGeometry width="160" relative="1" as="geometry">
            <mxPoint x="541" y="547" as="sourcePoint" />
            <mxPoint x="574" y="695" as="targetPoint" />
            <Array as="points" />
          </mxGeometry>
        </mxCell>
        <mxCell id="MZBfvDzPDUjcSjVEDZ4E-34" value="Use" style="endArrow=open;endSize=12;dashed=1;html=1;rounded=0;fontSize=14;exitX=0.677;exitY=1.027;exitDx=0;exitDy=0;exitPerimeter=0;entryX=0.348;entryY=0.003;entryDx=0;entryDy=0;entryPerimeter=0;" edge="1" parent="MZBfvDzPDUjcSjVEDZ4E-1" source="MZBfvDzPDUjcSjVEDZ4E-21" target="MZBfvDzPDUjcSjVEDZ4E-36">
          <mxGeometry width="160" relative="1" as="geometry">
            <mxPoint x="286" y="393" as="sourcePoint" />
            <mxPoint x="283" y="473" as="targetPoint" />
            <Array as="points" />
          </mxGeometry>
        </mxCell>
        <mxCell id="MZBfvDzPDUjcSjVEDZ4E-35" value="Use" style="endArrow=open;endSize=12;dashed=1;html=1;rounded=0;fontSize=14;entryX=0.83;entryY=0.007;entryDx=0;entryDy=0;entryPerimeter=0;" edge="1" parent="MZBfvDzPDUjcSjVEDZ4E-1" source="MZBfvDzPDUjcSjVEDZ4E-22" target="MZBfvDzPDUjcSjVEDZ4E-36">
          <mxGeometry width="160" relative="1" as="geometry">
            <mxPoint x="561" y="639" as="sourcePoint" />
            <mxPoint x="578" y="717" as="targetPoint" />
          </mxGeometry>
        </mxCell>
        <mxCell id="MZBfvDzPDUjcSjVEDZ4E-36" value="" style="swimlane;startSize=0;" vertex="1" parent="MZBfvDzPDUjcSjVEDZ4E-1">
          <mxGeometry x="4" y="470" width="819" height="364.5" as="geometry" />
        </mxCell>
        <mxCell id="MZBfvDzPDUjcSjVEDZ4E-37" value="Pieces" style="swimlane;fontStyle=2;align=center;verticalAlign=top;childLayout=stackLayout;horizontal=1;startSize=26;horizontalStack=0;resizeParent=1;resizeLast=0;collapsible=1;marginBottom=0;rounded=0;shadow=0;strokeWidth=1;labelBackgroundColor=none;fontSize=14;" vertex="1" parent="MZBfvDzPDUjcSjVEDZ4E-36">
          <mxGeometry x="359" y="4" width="270" height="128" as="geometry">
            <mxRectangle x="205" y="120" width="160" height="26" as="alternateBounds" />
          </mxGeometry>
        </mxCell>
        <mxCell id="MZBfvDzPDUjcSjVEDZ4E-38" value="+ location : tuple[]&#xa;+ color : Color" style="text;align=left;verticalAlign=top;spacingLeft=4;spacingRight=4;overflow=hidden;rotatable=0;points=[[0,0.5],[1,0.5]];portConstraint=eastwest;rounded=0;shadow=0;html=0;labelBackgroundColor=none;fontSize=14;" vertex="1" parent="MZBfvDzPDUjcSjVEDZ4E-37">
          <mxGeometry y="26" width="270" height="43" as="geometry" />
        </mxCell>
        <mxCell id="MZBfvDzPDUjcSjVEDZ4E-39" value="" style="line;html=1;strokeWidth=1;align=left;verticalAlign=middle;spacingTop=-1;spacingLeft=3;spacingRight=3;rotatable=0;labelPosition=right;points=[];portConstraint=eastwest;labelBackgroundColor=none;fontSize=14;" vertex="1" parent="MZBfvDzPDUjcSjVEDZ4E-37">
          <mxGeometry y="69" width="270" height="8" as="geometry" />
        </mxCell>
        <mxCell id="MZBfvDzPDUjcSjVEDZ4E-40" value="+ move_to(self, location)&#xa;+ check_options(self, board) " style="text;align=left;verticalAlign=top;spacingLeft=4;spacingRight=4;overflow=hidden;rotatable=0;points=[[0,0.5],[1,0.5]];portConstraint=eastwest;labelBackgroundColor=none;fontSize=14;" vertex="1" parent="MZBfvDzPDUjcSjVEDZ4E-37">
          <mxGeometry y="77" width="270" height="49" as="geometry" />
        </mxCell>
        <mxCell id="MZBfvDzPDUjcSjVEDZ4E-41" value="Board" style="swimlane;fontStyle=2;align=center;verticalAlign=top;childLayout=stackLayout;horizontal=1;startSize=26;horizontalStack=0;resizeParent=1;resizeLast=0;collapsible=1;marginBottom=0;rounded=0;shadow=0;strokeWidth=1;labelBackgroundColor=none;fontSize=14;" vertex="1" parent="MZBfvDzPDUjcSjVEDZ4E-36">
          <mxGeometry x="12" y="11" width="204" height="236" as="geometry">
            <mxRectangle x="12" y="11" width="160" height="26" as="alternateBounds" />
          </mxGeometry>
        </mxCell>
        <mxCell id="MZBfvDzPDUjcSjVEDZ4E-42" value="+ white_pieces&#xa;+ black_pieces&#xa;+ captured_white_pieces&#xa;+ captured_black_pieces" style="text;align=left;verticalAlign=top;spacingLeft=4;spacingRight=4;overflow=hidden;rotatable=0;points=[[0,0.5],[1,0.5]];portConstraint=eastwest;rounded=0;shadow=0;html=0;labelBackgroundColor=none;fontSize=14;" vertex="1" parent="MZBfvDzPDUjcSjVEDZ4E-41">
          <mxGeometry y="26" width="204" height="82" as="geometry" />
        </mxCell>
        <mxCell id="MZBfvDzPDUjcSjVEDZ4E-43" value="" style="line;html=1;strokeWidth=1;align=left;verticalAlign=middle;spacingTop=-1;spacingLeft=3;spacingRight=3;rotatable=0;labelPosition=right;points=[];portConstraint=eastwest;labelBackgroundColor=none;fontSize=14;" vertex="1" parent="MZBfvDzPDUjcSjVEDZ4E-41">
          <mxGeometry y="108" width="204" height="8" as="geometry" />
        </mxCell>
        <mxCell id="MZBfvDzPDUjcSjVEDZ4E-44" value="+ add_piece(piece_type,&#xa; location, color)&#xa;+ remove_piece(self, piece)&#xa;+ get_piece_at_location&#xa;(self, location)&#xa;+ pieces() : Piece" style="text;align=left;verticalAlign=top;spacingLeft=4;spacingRight=4;overflow=hidden;rotatable=0;points=[[0,0.5],[1,0.5]];portConstraint=eastwest;labelBackgroundColor=none;fontSize=14;" vertex="1" parent="MZBfvDzPDUjcSjVEDZ4E-41">
          <mxGeometry y="116" width="204" height="112" as="geometry" />
        </mxCell>
        <mxCell id="MZBfvDzPDUjcSjVEDZ4E-45" value="Queen&#xa;" style="swimlane;fontStyle=2;align=center;verticalAlign=top;childLayout=stackLayout;horizontal=1;startSize=26;horizontalStack=0;resizeParent=1;resizeLast=0;collapsible=1;marginBottom=0;rounded=0;shadow=0;strokeWidth=1;labelBackgroundColor=none;fontSize=14;" vertex="1" parent="MZBfvDzPDUjcSjVEDZ4E-36">
          <mxGeometry x="420" y="177" width="192" height="83" as="geometry">
            <mxRectangle x="205" y="120" width="160" height="26" as="alternateBounds" />
          </mxGeometry>
        </mxCell>
        <mxCell id="MZBfvDzPDUjcSjVEDZ4E-46" value="" style="line;html=1;strokeWidth=1;align=left;verticalAlign=middle;spacingTop=-1;spacingLeft=3;spacingRight=3;rotatable=0;labelPosition=right;points=[];portConstraint=eastwest;labelBackgroundColor=none;fontSize=14;" vertex="1" parent="MZBfvDzPDUjcSjVEDZ4E-45">
          <mxGeometry y="26" width="192" height="2" as="geometry" />
        </mxCell>
        <mxCell id="MZBfvDzPDUjcSjVEDZ4E-47" value="+ move_to(self, location)&#xa;+ check_options(self, board) " style="text;align=left;verticalAlign=top;spacingLeft=4;spacingRight=4;overflow=hidden;rotatable=0;points=[[0,0.5],[1,0.5]];portConstraint=eastwest;labelBackgroundColor=none;fontSize=14;" vertex="1" parent="MZBfvDzPDUjcSjVEDZ4E-45">
          <mxGeometry y="28" width="192" height="49" as="geometry" />
        </mxCell>
        <mxCell id="MZBfvDzPDUjcSjVEDZ4E-48" value="King" style="swimlane;fontStyle=2;align=center;verticalAlign=top;childLayout=stackLayout;horizontal=1;startSize=26;horizontalStack=0;resizeParent=1;resizeLast=0;collapsible=1;marginBottom=0;rounded=0;shadow=0;strokeWidth=1;labelBackgroundColor=none;fontSize=14;" vertex="1" parent="MZBfvDzPDUjcSjVEDZ4E-36">
          <mxGeometry x="223" y="177" width="192" height="83" as="geometry">
            <mxRectangle x="205" y="120" width="160" height="26" as="alternateBounds" />
          </mxGeometry>
        </mxCell>
        <mxCell id="MZBfvDzPDUjcSjVEDZ4E-49" value="" style="line;html=1;strokeWidth=1;align=left;verticalAlign=middle;spacingTop=-1;spacingLeft=3;spacingRight=3;rotatable=0;labelPosition=right;points=[];portConstraint=eastwest;labelBackgroundColor=none;fontSize=14;" vertex="1" parent="MZBfvDzPDUjcSjVEDZ4E-48">
          <mxGeometry y="26" width="192" height="2" as="geometry" />
        </mxCell>
        <mxCell id="MZBfvDzPDUjcSjVEDZ4E-50" value="+ move_to(self, location)&#xa;+ check_options(self, board) " style="text;align=left;verticalAlign=top;spacingLeft=4;spacingRight=4;overflow=hidden;rotatable=0;points=[[0,0.5],[1,0.5]];portConstraint=eastwest;labelBackgroundColor=none;fontSize=14;" vertex="1" parent="MZBfvDzPDUjcSjVEDZ4E-48">
          <mxGeometry y="28" width="192" height="49" as="geometry" />
        </mxCell>
        <mxCell id="MZBfvDzPDUjcSjVEDZ4E-51" value="Pawn" style="swimlane;fontStyle=2;align=center;verticalAlign=top;childLayout=stackLayout;horizontal=1;startSize=26;horizontalStack=0;resizeParent=1;resizeLast=0;collapsible=1;marginBottom=0;rounded=0;shadow=0;strokeWidth=1;labelBackgroundColor=none;fontSize=14;" vertex="1" parent="MZBfvDzPDUjcSjVEDZ4E-36">
          <mxGeometry x="223" y="264" width="192" height="83" as="geometry">
            <mxRectangle x="205" y="120" width="160" height="26" as="alternateBounds" />
          </mxGeometry>
        </mxCell>
        <mxCell id="MZBfvDzPDUjcSjVEDZ4E-52" value="" style="line;html=1;strokeWidth=1;align=left;verticalAlign=middle;spacingTop=-1;spacingLeft=3;spacingRight=3;rotatable=0;labelPosition=right;points=[];portConstraint=eastwest;labelBackgroundColor=none;fontSize=14;" vertex="1" parent="MZBfvDzPDUjcSjVEDZ4E-51">
          <mxGeometry y="26" width="192" height="2" as="geometry" />
        </mxCell>
        <mxCell id="MZBfvDzPDUjcSjVEDZ4E-53" value="+ move_to(self, location)&#xa;+ check_options(self, board) " style="text;align=left;verticalAlign=top;spacingLeft=4;spacingRight=4;overflow=hidden;rotatable=0;points=[[0,0.5],[1,0.5]];portConstraint=eastwest;labelBackgroundColor=none;fontSize=14;" vertex="1" parent="MZBfvDzPDUjcSjVEDZ4E-51">
          <mxGeometry y="28" width="192" height="49" as="geometry" />
        </mxCell>
        <mxCell id="MZBfvDzPDUjcSjVEDZ4E-54" value="Rook" style="swimlane;fontStyle=2;align=center;verticalAlign=top;childLayout=stackLayout;horizontal=1;startSize=26;horizontalStack=0;resizeParent=1;resizeLast=0;collapsible=1;marginBottom=0;rounded=0;shadow=0;strokeWidth=1;labelBackgroundColor=none;fontSize=14;" vertex="1" parent="MZBfvDzPDUjcSjVEDZ4E-36">
          <mxGeometry x="420" y="264" width="192" height="83" as="geometry">
            <mxRectangle x="205" y="120" width="160" height="26" as="alternateBounds" />
          </mxGeometry>
        </mxCell>
        <mxCell id="MZBfvDzPDUjcSjVEDZ4E-55" value="" style="line;html=1;strokeWidth=1;align=left;verticalAlign=middle;spacingTop=-1;spacingLeft=3;spacingRight=3;rotatable=0;labelPosition=right;points=[];portConstraint=eastwest;labelBackgroundColor=none;fontSize=14;" vertex="1" parent="MZBfvDzPDUjcSjVEDZ4E-54">
          <mxGeometry y="26" width="192" height="2" as="geometry" />
        </mxCell>
        <mxCell id="MZBfvDzPDUjcSjVEDZ4E-56" value="+ move_to(self, location)&#xa;+ check_options(self, board) " style="text;align=left;verticalAlign=top;spacingLeft=4;spacingRight=4;overflow=hidden;rotatable=0;points=[[0,0.5],[1,0.5]];portConstraint=eastwest;labelBackgroundColor=none;fontSize=14;" vertex="1" parent="MZBfvDzPDUjcSjVEDZ4E-54">
          <mxGeometry y="28" width="192" height="49" as="geometry" />
        </mxCell>
        <mxCell id="MZBfvDzPDUjcSjVEDZ4E-57" value="Bishop" style="swimlane;fontStyle=2;align=center;verticalAlign=top;childLayout=stackLayout;horizontal=1;startSize=26;horizontalStack=0;resizeParent=1;resizeLast=0;collapsible=1;marginBottom=0;rounded=0;shadow=0;strokeWidth=1;labelBackgroundColor=none;fontSize=14;" vertex="1" parent="MZBfvDzPDUjcSjVEDZ4E-36">
          <mxGeometry x="617" y="177" width="192" height="83" as="geometry">
            <mxRectangle x="205" y="120" width="160" height="26" as="alternateBounds" />
          </mxGeometry>
        </mxCell>
        <mxCell id="MZBfvDzPDUjcSjVEDZ4E-58" value="" style="line;html=1;strokeWidth=1;align=left;verticalAlign=middle;spacingTop=-1;spacingLeft=3;spacingRight=3;rotatable=0;labelPosition=right;points=[];portConstraint=eastwest;labelBackgroundColor=none;fontSize=14;" vertex="1" parent="MZBfvDzPDUjcSjVEDZ4E-57">
          <mxGeometry y="26" width="192" height="2" as="geometry" />
        </mxCell>
        <mxCell id="MZBfvDzPDUjcSjVEDZ4E-59" value="+ move_to(self, location)&#xa;+ check_options(self, board) " style="text;align=left;verticalAlign=top;spacingLeft=4;spacingRight=4;overflow=hidden;rotatable=0;points=[[0,0.5],[1,0.5]];portConstraint=eastwest;labelBackgroundColor=none;fontSize=14;" vertex="1" parent="MZBfvDzPDUjcSjVEDZ4E-57">
          <mxGeometry y="28" width="192" height="49" as="geometry" />
        </mxCell>
        <mxCell id="MZBfvDzPDUjcSjVEDZ4E-60" value="Knight" style="swimlane;fontStyle=2;align=center;verticalAlign=top;childLayout=stackLayout;horizontal=1;startSize=26;horizontalStack=0;resizeParent=1;resizeLast=0;collapsible=1;marginBottom=0;rounded=0;shadow=0;strokeWidth=1;labelBackgroundColor=none;fontSize=14;" vertex="1" parent="MZBfvDzPDUjcSjVEDZ4E-36">
          <mxGeometry x="617" y="264" width="192" height="83" as="geometry">
            <mxRectangle x="205" y="120" width="160" height="26" as="alternateBounds" />
          </mxGeometry>
        </mxCell>
        <mxCell id="MZBfvDzPDUjcSjVEDZ4E-61" value="" style="line;html=1;strokeWidth=1;align=left;verticalAlign=middle;spacingTop=-1;spacingLeft=3;spacingRight=3;rotatable=0;labelPosition=right;points=[];portConstraint=eastwest;labelBackgroundColor=none;fontSize=14;" vertex="1" parent="MZBfvDzPDUjcSjVEDZ4E-60">
          <mxGeometry y="26" width="192" height="2" as="geometry" />
        </mxCell>
        <mxCell id="MZBfvDzPDUjcSjVEDZ4E-62" value="+ move_to(self, location)&#xa;+ check_options(self, board) " style="text;align=left;verticalAlign=top;spacingLeft=4;spacingRight=4;overflow=hidden;rotatable=0;points=[[0,0.5],[1,0.5]];portConstraint=eastwest;labelBackgroundColor=none;fontSize=14;" vertex="1" parent="MZBfvDzPDUjcSjVEDZ4E-60">
          <mxGeometry y="28" width="192" height="49" as="geometry" />
        </mxCell>
        <mxCell id="MZBfvDzPDUjcSjVEDZ4E-63" value="" style="endArrow=block;dashed=1;endFill=0;endSize=12;html=1;rounded=0;" edge="1" parent="MZBfvDzPDUjcSjVEDZ4E-36" source="MZBfvDzPDUjcSjVEDZ4E-48" target="MZBfvDzPDUjcSjVEDZ4E-37">
          <mxGeometry width="160" relative="1" as="geometry">
            <mxPoint x="218" y="204" as="sourcePoint" />
            <mxPoint x="378" y="204" as="targetPoint" />
          </mxGeometry>
        </mxCell>
        <mxCell id="MZBfvDzPDUjcSjVEDZ4E-64" value="" style="endArrow=block;dashed=1;endFill=0;endSize=12;html=1;rounded=0;" edge="1" parent="MZBfvDzPDUjcSjVEDZ4E-36" source="MZBfvDzPDUjcSjVEDZ4E-45" target="MZBfvDzPDUjcSjVEDZ4E-37">
          <mxGeometry width="160" relative="1" as="geometry">
            <mxPoint x="132" y="315" as="sourcePoint" />
            <mxPoint x="147" y="282" as="targetPoint" />
          </mxGeometry>
        </mxCell>
        <mxCell id="MZBfvDzPDUjcSjVEDZ4E-65" value="" style="endArrow=block;dashed=1;endFill=0;endSize=12;html=1;rounded=0;" edge="1" parent="MZBfvDzPDUjcSjVEDZ4E-36" target="MZBfvDzPDUjcSjVEDZ4E-37">
          <mxGeometry width="160" relative="1" as="geometry">
            <mxPoint x="652.6112956810634" y="177" as="sourcePoint" />
            <mxPoint x="655" y="148" as="targetPoint" />
          </mxGeometry>
        </mxCell>
        <mxCell id="m6KDfaSegTq1jbthcWUW-0" value="Design Pattern&lt;div&gt;&lt;br&gt;&lt;div&gt;&lt;font style=&quot;font-size: 18px;&quot;&gt;FACADE&lt;/font&gt;&lt;/div&gt;&lt;/div&gt;" style="rounded=1;whiteSpace=wrap;html=1;" vertex="1" parent="MZBfvDzPDUjcSjVEDZ4E-1">
          <mxGeometry x="330" y="31" width="191" height="82" as="geometry" />
        </mxCell>
      </root>
    </mxGraphModel>
  </diagram>
</mxfile>
